<?xml version="1.0" encoding="iso-8859-1"?>
<!-- Generator: Adobe Illustrator 18.0.0, SVG Export Plug-In . SVG Version: 6.00 Build 0)  -->
<!DOCTYPE svg PUBLIC "-//W3C//DTD SVG 1.1//EN" "http://www.w3.org/Graphics/SVG/1.1/DTD/svg11.dtd">
<svg version="1.1" id="Capa_1" xmlns="http://www.w3.org/2000/svg" xmlns:xlink="http://www.w3.org/1999/xlink" x="0px" y="0px"
	 viewBox="0 0 415.259 415.259" style="enable-background:new 0 0 415.259 415.259;" xml:space="preserve">
<g>
	<path d="M409.259,64.251H6c-3.313,0-6,2.687-6,6v274.757c0,3.313,2.687,6,6,6h403.259c3.313,0,6-2.687,6-6V70.251
		C415.259,66.938,412.572,64.251,409.259,64.251z M403.259,339.008H12V76.251h391.259V339.008z"/>
	<path d="M30.462,312.976h354.335c3.313,0,6-2.687,6-6V92.987c0-3.313-2.687-6-6-6H30.462c-3.313,0-6,2.687-6,6v213.988
		C24.462,310.289,27.148,312.976,30.462,312.976z M207.631,226.913c-24.988,0-45.318-20.33-45.318-45.318
		s20.33-45.318,45.318-45.318s45.318,20.33,45.318,45.318S232.619,226.913,207.631,226.913z M207.631,238.913
		c18.256,0,34.533-8.589,45.037-21.928c10.814,0.576,19.442,9.53,19.442,20.485v63.505h-58.48v-6.925
		c8.693-2.591,15.054-10.647,15.054-20.171c0-11.609-9.444-21.054-21.053-21.054c-11.609,0-21.054,9.444-21.054,21.054
		c0,9.524,6.36,17.58,15.053,20.171v6.925h-58.48v-63.505c0-10.956,8.629-19.91,19.444-20.485
		C173.097,230.323,189.375,238.913,207.631,238.913z M207.631,282.934c-4.992,0-9.054-4.062-9.054-9.054s4.062-9.054,9.054-9.054
		c4.991,0,9.053,4.062,9.053,9.054S212.622,282.934,207.631,282.934z M36.462,98.987h342.335v201.988H284.11v-63.505
		c0-15.202-10.479-27.999-24.592-31.555c3.477-7.388,5.431-15.629,5.431-24.321c0-31.605-25.713-57.318-57.318-57.318
		s-57.318,25.713-57.318,57.318c0,8.692,1.954,16.932,5.431,24.32c-14.114,3.556-24.594,16.353-24.594,31.556v63.505H36.462V98.987z
		"/>
	<rect x="178.208" y="183.033" width="17.79" height="12"/>
	<rect x="219.263" y="183.033" width="17.79" height="12"/>
	<rect x="362.494" y="320.215" width="22.499" height="12"/>
</g>
<g>
</g>
<g>
</g>
<g>
</g>
<g>
</g>
<g>
</g>
<g>
</g>
<g>
</g>
<g>
</g>
<g>
</g>
<g>
</g>
<g>
</g>
<g>
</g>
<g>
</g>
<g>
</g>
<g>
</g>
</svg>
