<?xml version="1.0" encoding="iso-8859-1"?>
<!-- Generator: Adobe Illustrator 18.0.0, SVG Export Plug-In . SVG Version: 6.00 Build 0)  -->
<!DOCTYPE svg PUBLIC "-//W3C//DTD SVG 1.1//EN" "http://www.w3.org/Graphics/SVG/1.1/DTD/svg11.dtd">
<svg version="1.1" id="Capa_1" xmlns="http://www.w3.org/2000/svg" xmlns:xlink="http://www.w3.org/1999/xlink" x="0px" y="0px"
	 viewBox="0 0 427.265 427.265" style="enable-background:new 0 0 427.265 427.265;" xml:space="preserve">
<path d="M369.229,327.983c-13.784-9.292-32.002-14.409-51.297-14.409c-14.968,0-29.277,3.091-41.381,8.81
	c-0.288-0.741-0.603-1.552-0.951-2.446l-0.254-0.653c-3.061-7.896-2.073-16.825,2.64-23.888c1.201-1.801,1.34-4.108,0.362-6.04
	l-21.089-41.654c-0.083-0.164-0.193-0.305-0.289-0.458c2.435-5.7,2.555-12.004,0.326-17.755L177.854,20.264
	c-3.061-7.896-9.013-14.129-16.761-17.548c-7.747-3.419-16.363-3.616-24.26-0.558c-16.301,6.318-24.423,24.721-18.12,40.983
	l79.441,209.226c2.338,6.03,6.902,10.543,12.387,12.995c-0.077,0.162-0.112,0.321-0.069,0.474l12.491,44.986
	c0.579,2.086,2.237,3.698,4.339,4.219c8.241,2.041,14.988,7.973,18.046,15.861l0.103,0.267c1.595,4.127,2.528,6.545,3.076,7.967
	l-27.262,18.369l-43.808-29.521c-13.78-9.291-31.998-14.408-51.297-14.408c-16.125,0-31.493,3.569-44.147,10.158
	c-2.497,1.3-20.429,12.137-23.987,14.539c-14.511,9.792-22.502,23.034-22.502,37.286c0,14.27,7.993,27.516,22.506,37.297
	c13.789,9.292,32.009,14.41,51.301,14.41c19.293,0,37.513-5.118,51.305-14.412c0,0,13.783-8.25,16.822-10.297l28.538-19.233
	l43.816,29.531c13.784,9.29,32.002,14.407,51.297,14.407c9.578,0,18.892-1.261,27.532-3.668c8.761-2.441,37.022-18.632,40.59-21.038
	c14.518-9.789,22.514-23.031,22.514-37.287C391.744,351.014,383.748,337.773,369.229,327.983z M173.512,389.688
	c-19.697,13.279-43.99,18.352-67.179,13.2c-9.099-2.022-17.612-5.467-24.768-10.289c-11.104-7.487-17.219-17.192-17.219-27.329
	c0-3.224,0.611-6.396,1.809-9.469c3.256-8.357,10.59-14.401,19.239-16.777c7.53-2.069,15.638-3.148,23.931-3.148
	c16.94,0,32.777,4.387,44.594,12.355l40.552,27.328L173.512,389.688z M129.917,38.844c-3.927-10.132,1.121-21.569,11.253-25.496
	h-0.001c4.909-1.901,10.264-1.778,15.078,0.346c4.816,2.126,8.516,5.999,10.402,10.868l79.441,209.227
	c1.12,2.89,1.048,6.042-0.203,8.877s-3.531,5.014-6.422,6.133l-15.11,5.857c-5.965,2.311-12.7-0.66-14.997-6.587L129.917,38.844z
	 M233.641,304.424l-10.152-36.563l5.194-2.013c0.003-0.001,0.006-0.002,0.01-0.003l12.005-4.654l8.309-3.22l17.14,33.854
	c-5.247,9.748-6.024,21.386-1.985,31.807l0.254,0.653c0.626,1.611,1.148,2.954,1.586,4.077c-0.098,0.059-0.207,0.124-0.324,0.194
	l-7.28,2.821c-0.474-1.227-1.05-2.719-1.752-4.536l-0.104-0.271C252.504,316.162,244.086,308.089,233.641,304.424z M361.106,385.037
	c-3.243,8.347-10.562,14.385-19.197,16.76c-7.541,2.074-15.665,3.156-23.978,3.156c-16.932,0-32.766-4.387-44.586-12.356
	l-40.559-27.328l20.986-14.139c19.701-13.274,43.996-18.34,67.184-13.181c9.091,2.022,17.595,5.464,24.743,10.281
	c11.098,7.483,17.21,17.188,17.21,27.329C362.91,378.788,362.3,381.964,361.106,385.037z"/>
<g>
</g>
<g>
</g>
<g>
</g>
<g>
</g>
<g>
</g>
<g>
</g>
<g>
</g>
<g>
</g>
<g>
</g>
<g>
</g>
<g>
</g>
<g>
</g>
<g>
</g>
<g>
</g>
<g>
</g>
</svg>
