<?xml version="1.0" encoding="iso-8859-1"?>
<!-- Generator: Adobe Illustrator 18.0.0, SVG Export Plug-In . SVG Version: 6.00 Build 0)  -->
<!DOCTYPE svg PUBLIC "-//W3C//DTD SVG 1.1//EN" "http://www.w3.org/Graphics/SVG/1.1/DTD/svg11.dtd">
<svg version="1.1" id="Capa_1" xmlns="http://www.w3.org/2000/svg" xmlns:xlink="http://www.w3.org/1999/xlink" x="0px" y="0px"
	 viewBox="0 0 451.664 451.664" style="enable-background:new 0 0 451.664 451.664;" xml:space="preserve">
<g>
	<path d="M410.412,249.222c20.996-13.182,35.472-36.044,36.794-62.627c0.85-17.079-5.003-33.467-16.479-46.144
		c-11.477-12.678-27.203-20.127-44.282-20.976c-28.882-1.448-53.519,20.881-54.954,49.748c-0.165,3.31,2.385,6.126,5.694,6.29
		c3.3,0.194,6.126-2.385,6.29-5.694c0.537-10.782,5.239-20.71,13.243-27.955s18.35-10.934,29.131-10.404
		c13.878,0.69,26.656,6.743,35.981,17.044s14.08,23.617,13.391,37.495c-1.201,24.149-15.201,44.668-35.1,55.341
		c5.393-7.441,8.536-16.283,9.003-25.677c0.524-10.552-3.091-20.676-10.181-28.508s-16.805-12.434-27.356-12.958
		c-8.763-0.438-17.168,2.566-23.671,8.453s-10.324,13.954-10.76,22.716c-0.165,3.31,2.385,6.126,5.694,6.29
		c3.33,0.197,6.126-2.385,6.29-5.694c0.277-5.56,2.702-10.68,6.829-14.415c4.126-3.735,9.462-5.641,15.021-5.365
		c7.2,0.359,13.842,3.442,18.752,8.697c5.448,5.831,8.286,17.194,6.829,25.04c-1.429,7.69-5.311,14.667-11.208,20.006
		c-6.655,6.024-15.137,9.292-24.041,9.297h-0.135c-0.217-0.001-2.334-0.001-4.883-0.001c-6.359,0-12.705-0.605-18.949-1.808
		l-0.797-0.154v-16.546c0-15.438-8.986-33.642-24.037-48.692l-29.717-29.726c-4.579-4.567-10.657-7.082-17.116-7.082
		c-6.472,0-12.552,2.517-17.122,7.088c-8.25,8.249-8.25,21.674,0,29.926l28.73,28.729c2.847,2.848,4.057,6.909,3.186,10.916
		c-0.686,3.155-2.744,5.844-5.461,7.588l-7.132,4.576l-22.122-4.26v-22.119c0-3.314-2.686-6-6-6h-12.195
		c-1.167,0-1.663-0.776-1.854-1.239s-0.39-1.362,0.435-2.188l7.018-7.018c2.344-2.343,2.344-6.142,0-8.484l-21.084-21.084
		c-2.342-2.344-6.143-2.344-8.484,0l-50.321,50.321l-16.102-3.101c-1.746-0.342-3.556,0.12-4.935,1.248l-6.702,5.484l-17.262-42.748
		c-3.762-9.316-14.403-13.84-23.719-10.075c-4.514,1.822-8.049,5.293-9.952,9.773s-1.948,9.435-0.125,13.948l21.509,53.278
		l-11.548,9.448H0v12h451.664v-12H410.412z M285.782,202.471l-28.729-28.729c-3.572-3.572-3.572-9.384-0.001-12.956
		c2.305-2.304,5.372-3.572,8.638-3.572c3.26,0,6.329,1.271,8.637,3.572l29.711,29.72c12.658,12.659,20.522,28.066,20.522,40.208
		v14.235l-39.952-7.693c4.491-3.908,7.365-9.35,8.015-15.379C293.401,214.67,290.908,207.597,285.782,202.471z M207.846,174.374
		l12.599,12.599l-2.774,2.775c-4.021,4.02-5.213,10.012-3.037,15.265c2.176,5.252,7.256,8.646,12.941,8.646h6.195v13.808
		l-66.258-12.759L207.846,174.374z M85.613,182.004c-0.622-1.541-0.607-3.232,0.043-4.763s1.857-2.716,3.399-3.339
		c3.184-1.284,6.815,0.261,8.1,3.441l18.661,46.214l-10.094,8.258L85.613,182.004z M103.398,249.222l34.272-28.041l145.616,28.041
		H103.398z"/>
	<path d="M245.738,287.069c3.313,0,6-2.687,6-6s-2.687-6-6-6h-11.853c-3.313,0-6,2.687-6,6s2.687,6,6,6H245.738z"/>
	<path d="M216.923,281.069c0-3.313-2.687-6-6-6H23.516c-3.313,0-6,2.687-6,6s2.687,6,6,6h187.407
		C214.236,287.069,216.923,284.382,216.923,281.069z"/>
	<path d="M419.071,298.032h-63.703c-3.313,0-6,2.687-6,6s2.687,6,6,6h63.703c3.313,0,6-2.687,6-6S422.385,298.032,419.071,298.032z"
		/>
	<path d="M327.96,298.032H163.516c-3.313,0-6,2.687-6,6s2.687,6,6,6H327.96c3.313,0,6-2.687,6-6S331.273,298.032,327.96,298.032z"/>
	<path d="M219.071,320.255H107.22c-3.313,0-6,2.687-6,6s2.687,6,6,6h111.852c3.313,0,6-2.687,6-6S222.385,320.255,219.071,320.255z"
		/>
	<path d="M83.517,320.255H42.775c-3.313,0-6,2.687-6,6s2.687,6,6,6h40.741c3.313,0,6-2.687,6-6S86.83,320.255,83.517,320.255z"/>
</g>
<g>
</g>
<g>
</g>
<g>
</g>
<g>
</g>
<g>
</g>
<g>
</g>
<g>
</g>
<g>
</g>
<g>
</g>
<g>
</g>
<g>
</g>
<g>
</g>
<g>
</g>
<g>
</g>
<g>
</g>
</svg>
