<?xml version="1.0" encoding="iso-8859-1"?>
<!-- Generator: Adobe Illustrator 18.0.0, SVG Export Plug-In . SVG Version: 6.00 Build 0)  -->
<!DOCTYPE svg PUBLIC "-//W3C//DTD SVG 1.1//EN" "http://www.w3.org/Graphics/SVG/1.1/DTD/svg11.dtd">
<svg version="1.1" id="Capa_1" xmlns="http://www.w3.org/2000/svg" xmlns:xlink="http://www.w3.org/1999/xlink" x="0px" y="0px"
	 viewBox="0 0 472.561 472.561" style="enable-background:new 0 0 472.561 472.561;" xml:space="preserve">
<g>
	<path d="M368.545,133.909c-0.746-8.972-5.376-17.114-12.704-22.34l-46.265-32.986c-0.466-5.281-2.083-10.424-4.743-15.031
		c-3.193-5.546-7.813-10.167-13.36-13.362l-14.85-8.565l-3.925-30.817c-0.557-4.371-3.304-8.025-7.347-9.776
		c-4.042-1.749-8.587-1.252-12.155,1.333c0,0-30.311,21.911-30.407,21.962C149.462,63.188,103.91,138.943,103.91,222.028
		c0,44.699,12.969,87.598,37.539,124.323l-25.851,24.37c-4.441,4.187-6.988,10.088-6.988,16.191v61.979
		c0,13.052,10.619,23.67,23.67,23.67h180.783c13.052,0,23.67-10.619,23.67-23.67v-61.979c0-6.103-2.547-12.004-6.988-16.191
		l-22.795-21.489c16.302-14.596,26.507-39.514,24.521-62.116c-2.001-22.78-15.797-40.229-38.845-49.134
		c-39.297-15.183-50.019-42.005-52.906-54.092c15.448,3.066,31.582,0.215,45.415-8.431c2.188-1.368,4.716-2.091,7.311-2.091
		c2.837,0,5.563,0.853,7.876,2.464l9.64,6.725c6.552,4.565,14.637,5.678,22.179,3.052c7.202-2.507,12.677-7.99,15.182-15.188
		l12.38-12.38C366.068,151.677,369.291,142.881,368.545,133.909z M169.111,81.503c-8.712,14.681-16.981,33.18-22.255,55.63
		l-8.685-9.827C146.42,110.774,156.812,95.368,169.111,81.503z M132.683,139.217l11.251,12.73
		c-1.481,9.202-2.457,18.971-2.763,29.344l-17.724-15.456C125.94,156.733,129.029,147.843,132.683,139.217z M120.288,179.001
		l20.948,18.268c0.019,0.54,0.026,1.07,0.048,1.613c0.389,9.314,1.536,18.21,3.302,26.7l-28.258-16.836
		C116.954,198.667,118.283,188.732,120.288,179.001z M115.914,222.466l33.046,19.689c2.704,8.428,6.01,16.398,9.77,23.912
		l-41.337-18.764C116.43,239.112,115.931,230.823,115.914,222.466z M119.543,261.456l49.426,22.436
		c5.848,8.977,12.263,17.16,18.888,24.56l-61.466-20.196C123.529,279.504,121.24,270.556,119.543,261.456z M131.682,302.626
		l75.197,24.708c7.453,6.602,14.74,12.25,21.367,16.954h-73.997c-0.177-0.564-0.442-1.112-0.796-1.623
		C144.702,330.054,137.429,316.638,131.682,302.626z M324.733,448.891c0,6.435-5.235,11.67-11.67,11.67H132.28
		c-6.435,0-11.67-5.235-11.67-11.67c0,0,0.017-62.395,0.03-62.603h192.894h11.175C324.722,386.495,324.733,448.891,324.733,448.891z
		 M316.035,374.287H129.308l19.094-18H295.55c0.419,0,0.832-0.057,1.239-0.143L316.035,374.287z M350.941,149.833
		c-4.621,4.621-14.235,14.235-14.235,14.235l-0.548,1.898c-1.183,3.933-4.085,6.961-7.96,8.311
		c-3.87,1.348-8.015,0.777-11.372-1.563l-9.641-6.726c-4.34-3.022-9.437-4.62-14.738-4.62c-4.847,0-9.575,1.354-13.671,3.916
		c-15.203,9.501-33.841,10.368-49.858,2.313c-16.019-8.054-26.442-23.534-27.883-41.407l-1.282-15.996
		c-0.265-3.303-3.155-5.757-6.46-5.501c-3.303,0.265-5.766,3.157-5.501,6.46l1.282,15.999c1.781,22.087,14.661,41.214,34.454,51.167
		c1.09,0.548,2.192,1.057,3.301,1.539c0.935,8.24,8.198,48.734,61.474,69.318c23.776,9.186,30.099,26.274,31.216,38.991
		c1.849,21.042-9.361,45.311-25.705,56.121h-43.696c-28.409-17.105-93.465-64.971-96.843-145.906
		c-2.511-60.272,18.177-101.534,35.975-125.535c19.332-26.07,70.988-60.765,70.988-60.765c0.069-0.05,0.162-0.121,0.348-0.038
		c0.185,0.08,0.2,0.195,0.21,0.279l4.301,33.769c0.237,1.86,1.33,3.503,2.954,4.439l17.431,10.054
		c3.718,2.142,6.814,5.238,8.957,8.959c2.157,3.737,3.292,7.991,3.28,12.3c-0.006,1.915,0.958,3.703,2.517,4.814l48.64,34.68
		c5.285,3.768,8.259,10.038,7.713,16.682C356.219,142.5,354.118,146.656,350.941,149.833z"/>
	<path d="M283.833,86.856l-13.709-9.274c-2.744-1.857-6.475-1.137-8.332,1.608c-1.856,2.745-1.137,6.475,1.608,8.332l1.561,1.056
		c-0.364,1.002-0.572,2.079-0.572,3.207c0,5.2,4.216,9.416,9.416,9.416c2.917,0,5.523-1.327,7.25-3.41
		c1.715-0.169,3.345-1.065,4.386-2.603C287.298,92.443,286.578,88.713,283.833,86.856z"/>
</g>
<g>
</g>
<g>
</g>
<g>
</g>
<g>
</g>
<g>
</g>
<g>
</g>
<g>
</g>
<g>
</g>
<g>
</g>
<g>
</g>
<g>
</g>
<g>
</g>
<g>
</g>
<g>
</g>
<g>
</g>
</svg>
