<?xml version="1.0" encoding="iso-8859-1"?>
<!-- Generator: Adobe Illustrator 18.0.0, SVG Export Plug-In . SVG Version: 6.00 Build 0)  -->
<!DOCTYPE svg PUBLIC "-//W3C//DTD SVG 1.1//EN" "http://www.w3.org/Graphics/SVG/1.1/DTD/svg11.dtd">
<svg version="1.1" id="Capa_1" xmlns="http://www.w3.org/2000/svg" xmlns:xlink="http://www.w3.org/1999/xlink" x="0px" y="0px"
	 viewBox="0 0 400.652 400.652" style="enable-background:new 0 0 400.652 400.652;" xml:space="preserve">
<g>
	<path d="M58.502,48.467c-2.342-2.343-6.143-2.343-8.484,0c-2.344,2.343-2.344,6.142,0,8.485l85.519,85.519
		c1.171,1.171,2.707,1.757,4.242,1.757s3.071-0.586,4.242-1.757c2.344-2.343,2.344-6.142,0-8.485L58.502,48.467z"/>
	<path d="M129.622,146.957L39.029,68.234c-2.501-2.174-6.291-1.907-8.465,0.593c-2.173,2.501-1.907,6.291,0.594,8.464l90.593,78.724
		c1.136,0.987,2.538,1.471,3.933,1.471c1.678,0,3.346-0.699,4.532-2.064C132.388,152.92,132.123,149.131,129.622,146.957z"/>
	<path d="M78.465,29.985c-2.173-2.5-5.964-2.769-8.465-0.593c-2.501,2.173-2.767,5.963-0.594,8.464l78.724,90.593
		c1.187,1.365,2.854,2.064,4.532,2.064c1.395,0,2.797-0.484,3.933-1.471c2.501-2.173,2.767-5.963,0.594-8.464L78.465,29.985z"/>
	<path d="M395.428,371.338l-60.438-60.439c-3.008-3.008-7.007-4.665-11.26-4.665c-2.588,0-5.078,0.621-7.312,1.779l-82.098-82.099
		L368.355,91.879c2.344-2.343,2.344-6.142,0-8.485l-12.252-12.252l37.611-37.611c3.553-3.552,5.509-8.274,5.509-13.297
		s-1.956-9.746-5.508-13.297c-3.552-3.552-8.274-5.508-13.298-5.508c-5.022,0-9.745,1.956-13.297,5.508l-37.612,37.612
		l-12.462-12.462c-2.342-2.343-6.143-2.343-8.484,0L174.526,166.121l-9.558-9.558l10.27-10.27
		c10.548-10.546,11.241-27.709,1.579-39.072L94.284,10.156C89.084,4.04,81.5,0.346,73.478,0.022C65.47-0.29,57.6,2.768,51.923,8.445
		L9.006,51.362c-5.678,5.677-8.748,13.533-8.424,21.555s4.018,15.605,10.134,20.806l97.064,82.533
		c5.363,4.561,12.016,6.813,18.657,6.813c7.431,0,14.847-2.822,20.415-8.391l9.631-9.631l9.558,9.558L31.898,308.749
		c-2.344,2.343-2.344,6.142,0,8.485l12.462,12.462L6.936,367.12c-7.333,7.333-7.333,19.263,0,26.595
		c3.666,3.666,8.481,5.5,13.298,5.5c4.815,0,9.631-1.833,13.297-5.5l37.424-37.424l12.252,12.252
		c1.171,1.171,2.707,1.757,4.242,1.757s3.071-0.586,4.242-1.757l134.144-134.144l81.969,81.969
		c-3.49,6.083-2.656,13.989,2.535,19.18l60.439,60.439c3.008,3.008,7.007,4.665,11.26,4.665s8.252-1.656,11.261-4.665l2.13-2.13
		c3.008-3.008,4.664-7.006,4.664-11.259S398.436,374.345,395.428,371.338z M138.368,166.194c-6.158,6.157-16.18,6.563-22.814,0.921
		L18.489,84.582c-3.624-3.081-5.725-7.396-5.917-12.148c-0.191-4.753,1.555-9.223,4.918-12.586L60.407,16.93
		c3.197-3.196,7.392-4.933,11.88-4.933c0.234,0,0.471,0.005,0.707,0.014c4.753,0.192,9.066,2.293,12.147,5.917l82.533,97.064
		c5.642,6.635,5.237,16.655-0.921,22.813c0,0,0,0-0.001,0L138.368,166.194z M375.605,15.421c1.286-1.285,2.995-1.993,4.813-1.993
		c1.818,0,3.527,0.708,4.813,1.993c1.285,1.286,1.993,2.995,1.993,4.813s-0.708,3.527-1.993,4.812l-37.612,37.612l-9.625-9.625
		L375.605,15.421z M25.047,385.23c-2.655,2.654-6.973,2.652-9.626,0c-2.653-2.653-2.653-6.971,0-9.625l37.424-37.424l9.625,9.625
		L25.047,385.23z M87.449,355.815l-42.823-42.823L312.804,44.813l42.823,42.823L87.449,355.815z M386.944,385.372L386.944,385.372
		l-2.13,2.13c-1.482,1.482-4.067,1.482-5.55,0l-60.439-60.439c-1.53-1.53-1.53-4.02-0.001-5.549l2.132-2.131
		c0.74-0.741,1.726-1.149,2.774-1.149c1.048,0,2.033,0.408,2.774,1.149l60.439,60.44c0.741,0.741,1.149,1.727,1.149,2.774
		S387.685,384.631,386.944,385.372z"/>
</g>
<g>
</g>
<g>
</g>
<g>
</g>
<g>
</g>
<g>
</g>
<g>
</g>
<g>
</g>
<g>
</g>
<g>
</g>
<g>
</g>
<g>
</g>
<g>
</g>
<g>
</g>
<g>
</g>
<g>
</g>
</svg>
