<?xml version="1.0" encoding="iso-8859-1"?>
<!-- Generator: Adobe Illustrator 18.0.0, SVG Export Plug-In . SVG Version: 6.00 Build 0)  -->
<!DOCTYPE svg PUBLIC "-//W3C//DTD SVG 1.1//EN" "http://www.w3.org/Graphics/SVG/1.1/DTD/svg11.dtd">
<svg version="1.1" id="Capa_1" xmlns="http://www.w3.org/2000/svg" xmlns:xlink="http://www.w3.org/1999/xlink" x="0px" y="0px"
	 viewBox="0 0 468 468" style="enable-background:new 0 0 468 468;" xml:space="preserve">
<path d="M377.257,187.646c-6.772,0-13.372,0.752-19.725,2.165l-1.954-6.683c27.509-6.203,56.514-0.391,79.642,16.41
	c1.065,0.773,2.299,1.146,3.521,1.146c1.855,0,3.685-0.858,4.859-2.474c1.947-2.681,1.353-6.433-1.328-8.381
	c-26.15-18.996-58.994-25.469-90.067-18.24l-17.75-60.723h51.181c7.817,0,14.177,6.36,14.177,14.177
	c0,7.817-6.36,14.177-14.177,14.177h-10.761c-3.313,0-6,2.687-6,6s2.687,6,6,6h10.761c14.434,0,26.177-11.743,26.177-26.177
	s-11.743-26.177-26.177-26.177h-59.186c-1.889,0-3.668,0.89-4.801,2.401c-1.133,1.512-1.488,3.469-0.958,5.282l11.532,39.451
	H213.164l-3.755-34.878H229c3.313,0,6-2.687,6-6s-2.687-6-6-6h-43c-9.374,0-17,7.626-17,17c0,3.313,2.687,6,6,6s6-2.687,6-6
	c0-2.757,2.243-5,5-5h11.34l4.225,39.242l-39.935,43.131c-19.649-16.414-44.625-25.703-70.886-25.703c-3.313,0-6,2.687-6,6
	s2.687,6,6,6c23.199,0,45.272,8.137,62.718,22.525l-5.371,5.8c-15.642-12.789-35.613-20.473-57.347-20.473
	C40.708,187.646,0,228.354,0,278.39s40.708,90.743,90.744,90.743c47.472,0,86.541-36.644,90.421-83.131h8.366
	c1.783,9.117,7.371,16.888,15.044,21.577l-6.221,16.423h-7.35c-3.313,0-6,2.687-6,6s2.687,6,6,6h22c3.313,0,6-2.687,6-6
	s-2.687-6-6-6h-1.818l4.611-12.172c1.863,0.332,3.777,0.515,5.735,0.515c17.981,0,32.61-14.629,32.61-32.61
	c0-7.25-2.381-13.954-6.398-19.375l89.618-96.785l3.323,11.368c-0.42,0.147-0.842,0.284-1.26,0.436
	c-3.115,1.131-4.723,4.573-3.591,7.688c1.131,3.114,4.572,4.723,7.688,3.591c0.177-0.064,0.357-0.121,0.534-0.185l1.963,6.715
	c-34.692,12.76-59.504,46.137-59.504,85.201c0,50.036,40.707,90.743,90.743,90.743S468,328.426,468,278.39
	S427.293,187.646,377.257,187.646z M148.687,225.137c11.977,13.022,19.633,30.074,20.671,48.865h-65.915L148.687,225.137z
	 M90.744,357.133C47.324,357.133,12,321.809,12,278.39c0-43.419,35.324-78.744,78.744-78.744c18.59,0,35.685,6.49,49.17,17.304
	l-54.606,58.975c-1.62,1.75-2.05,4.293-1.095,6.479c0.955,2.185,3.113,3.598,5.498,3.598h79.402
	C165.27,325.862,131.594,357.133,90.744,357.133z M189.435,274.002h-8.056c-1.065-22.263-10.192-42.446-24.517-57.694l5.375-5.805
	c3.732,3.931,7.175,8.189,10.267,12.765c1.159,1.716,3.051,2.642,4.977,2.642c1.156,0,2.324-0.333,3.354-1.029
	c2.746-1.855,3.468-5.585,1.613-8.331c-3.613-5.347-7.652-10.308-12.043-14.868l32.863-35.493l8.863,82.322
	C200.503,252.019,191.599,261.857,189.435,274.002z M221.531,300.345c-11.365,0-20.611-9.246-20.611-20.61
	s9.246-20.611,20.611-20.611s20.61,9.246,20.61,20.611S232.896,300.345,221.531,300.345z M238.954,252.19
	c-0.157-0.099-0.31-0.204-0.469-0.301l6.776-17.887h5.742c3.313,0,6-2.687,6-6s-2.687-6-6-6h-22c-3.313,0-6,2.687-6,6s2.687,6,6,6
	h3.426l-5.166,13.637c-1.051-0.187-2.118-0.323-3.201-0.407l-9.607-89.23h111.712L238.954,252.19z M377.257,357.133
	c-43.419,0-78.743-35.324-78.743-78.743c0-33.613,21.177-62.36,50.884-73.637l22.41,76.666c0.765,2.619,3.159,4.318,5.756,4.318
	c0.557,0,1.124-0.078,1.686-0.243c3.18-0.93,5.005-4.262,4.075-7.442l-22.416-76.687c5.277-1.119,10.743-1.718,16.348-1.718
	c43.419,0,78.743,35.324,78.743,78.744C456,321.809,420.676,357.133,377.257,357.133z"/>
<g>
</g>
<g>
</g>
<g>
</g>
<g>
</g>
<g>
</g>
<g>
</g>
<g>
</g>
<g>
</g>
<g>
</g>
<g>
</g>
<g>
</g>
<g>
</g>
<g>
</g>
<g>
</g>
<g>
</g>
</svg>
