<?xml version="1.0" encoding="iso-8859-1"?>
<!-- Generator: Adobe Illustrator 18.0.0, SVG Export Plug-In . SVG Version: 6.00 Build 0)  -->
<!DOCTYPE svg PUBLIC "-//W3C//DTD SVG 1.1//EN" "http://www.w3.org/Graphics/SVG/1.1/DTD/svg11.dtd">
<svg version="1.1" id="Capa_1" xmlns="http://www.w3.org/2000/svg" xmlns:xlink="http://www.w3.org/1999/xlink" x="0px" y="0px"
	 viewBox="0 0 470.388 470.388" style="enable-background:new 0 0 470.388 470.388;" xml:space="preserve">
<path d="M235.194,47.506c-3.313,0-6-2.46-6-5.494V7.585c0-3.034,2.687-5.494,6-5.494s6,2.46,6,5.494v34.427
	C241.194,45.046,238.508,47.506,235.194,47.506z"/>
<g>
	<path d="M360.095,153.716h-91.69c-9.86,0-17.924-7.74-18.492-17.46c9.84-5.273,16.55-15.656,16.55-27.579
		c0-17.241-14.027-31.269-31.269-31.269c-17.242,0-31.27,14.027-31.27,31.269c0,11.923,6.71,22.306,16.55,27.579
		c-0.568,9.72-8.632,17.46-18.492,17.46h-91.69c-12.465,0-22.605,10.141-22.605,22.605s10.141,22.605,22.605,22.605h30.901v2.604
		c0,3.313,2.687,6,6,6s6-2.687,6-6v-2.604h5.471c4.405,0,8.221,2.533,10.094,6.214c-23.513,4.422-41.362,25.098-41.362,49.876
		v184.082c0,17.253,14.036,31.289,31.288,31.289h38.947c17.253,0,31.289-14.036,31.289-31.289V412.63h12.547v26.469
		c0,17.253,14.036,31.289,31.288,31.289h38.947c17.253,0,31.289-14.036,31.289-31.289V255.017c0-24.778-17.85-45.454-41.363-49.876
		c1.872-3.681,5.689-6.214,10.094-6.214h5.472v2.604c0,3.313,2.687,6,6,6s6-2.687,6-6v-2.604h30.9
		c12.465,0,22.605-10.141,22.605-22.605S372.56,153.716,360.095,153.716z M235.194,89.408c10.625,0,19.269,8.644,19.269,19.269
		s-8.644,19.27-19.269,19.27s-19.27-8.645-19.27-19.27S224.569,89.408,235.194,89.408z M178.158,216.254
		c21.374,0,38.763,17.389,38.763,38.763v18.547h-77.524v-18.547C139.396,233.643,156.785,216.254,178.158,216.254z M253.468,293.778
		v-8.215h77.524v8.215H253.468z M330.992,305.778v94.852h-77.524v-94.852H330.992z M241.468,293.778h-12.547v-8.215h12.547V293.778z
		 M216.921,293.778h-77.524v-8.215h77.524V293.778z M216.921,305.778v94.852h-77.524v-94.852H216.921z M216.921,439.099
		c0,10.636-8.653,19.289-19.289,19.289h-38.947c-10.636,0-19.288-8.653-19.288-19.289V412.63h77.524V439.099z M228.921,400.63
		v-94.852h12.547v94.852H228.921z M311.703,458.388h-38.947c-10.636,0-19.288-8.653-19.288-19.289V412.63h77.524v26.469
		C330.992,449.734,322.339,458.388,311.703,458.388z M330.992,255.017v18.547h-77.524v-18.547c0-21.374,17.389-38.763,38.762-38.763
		C313.604,216.254,330.992,233.643,330.992,255.017z M360.095,186.927h-30.9v-3.396c0-3.313-2.687-6-6-6s-6,2.687-6,6v3.396h-5.472
		c-10.825,0-19.95,7.413-22.57,17.429c-26.562,1.597-47.685,23.704-47.685,50.661v18.547h-12.547v-18.547
		c0-26.956-21.124-49.064-47.686-50.661c-2.62-10.016-11.745-17.429-22.57-17.429h-5.471v-3.396c0-3.313-2.687-6-6-6s-6,2.687-6,6
		v3.396h-30.901c-5.848,0-10.605-4.758-10.605-10.605s4.758-10.605,10.605-10.605h91.69c15.27,0,27.959-11.263,30.196-25.918
		c0.993,0.095,1.997,0.148,3.015,0.148c1.017,0,2.021-0.053,3.014-0.148c2.237,14.655,14.926,25.917,30.196,25.917h91.69
		c5.848,0,10.605,4.758,10.605,10.605S365.942,186.927,360.095,186.927z"/>
	<path d="M188.98,76.229h19.582c13.242,0,24.016-10.772,24.016-24.015c0-1.442,1.174-2.616,2.616-2.616s2.616,1.174,2.616,2.616
		c0,13.242,10.772,24.015,24.015,24.015h19.583c17.993,0,32.631-14.638,32.631-32.631C314.039,19.558,294.481,0,270.441,0h-70.495
		c-24.04,0-43.598,19.558-43.598,43.598C156.349,61.591,170.987,76.229,188.98,76.229z M199.946,12h70.495
		c17.423,0,31.598,14.175,31.598,31.598c0,11.376-9.255,20.631-20.631,20.631h-19.583c-6.625,0-12.015-5.39-12.015-12.015
		c0-8.06-6.557-14.616-14.616-14.616s-14.616,6.557-14.616,14.616c0,6.625-5.391,12.015-12.016,12.015H188.98
		c-11.376,0-20.632-9.255-20.632-20.631C168.349,26.175,182.523,12,199.946,12z"/>
</g>
<g>
</g>
<g>
</g>
<g>
</g>
<g>
</g>
<g>
</g>
<g>
</g>
<g>
</g>
<g>
</g>
<g>
</g>
<g>
</g>
<g>
</g>
<g>
</g>
<g>
</g>
<g>
</g>
<g>
</g>
</svg>
