<?xml version="1.0" encoding="iso-8859-1"?>
<!-- Generator: Adobe Illustrator 18.0.0, SVG Export Plug-In . SVG Version: 6.00 Build 0)  -->
<!DOCTYPE svg PUBLIC "-//W3C//DTD SVG 1.1//EN" "http://www.w3.org/Graphics/SVG/1.1/DTD/svg11.dtd">
<svg version="1.1" id="Capa_1" xmlns="http://www.w3.org/2000/svg" xmlns:xlink="http://www.w3.org/1999/xlink" x="0px" y="0px"
	 viewBox="0 0 447.624 447.624" style="enable-background:new 0 0 447.624 447.624;" xml:space="preserve">
<g>
	<path d="M415.321,386.278l-23.169-255.051c-1.145-12.6-11.549-22.102-24.201-22.102h-0.134V66.388
		c0-36.606-31.626-66.388-70.5-66.388s-70.5,29.767-70.5,66.356v42.779c-12.556,0.106-22.853,9.562-23.991,22.092l-14.289,157.294
		l-74.445-89.446c-7.057-8.488-11.144-19.225-11.506-30.232l-1.45-43.94c-0.071-2.143-1.279-4.084-3.17-5.095
		c-1.891-1.009-4.177-0.935-5.997,0.198l-56.98,35.46c-1.82,1.133-2.897,3.15-2.827,5.292c0.071,2.142,1.279,4.084,3.17,5.094
		l38.771,20.709c9.724,5.195,17.554,13.603,22.047,23.669l85.869,192.78c0.176,0.396,0.393,0.767,0.645,1.11
		c1.533,3.406,3.6,6.583,6.161,9.388c3.129,3.425,6.878,6.161,10.993,8.12v19.994c0,3.313,2.687,6,6,6h184c3.313,0,6-2.687,6-6
		v-20.303c3.858-1.933,7.374-4.566,10.336-7.809C412.882,406.143,416.224,396.217,415.321,386.278z M79.756,175.979L50.15,160.165
		l39.334-24.478l1.107,33.552c0.188,5.703,1.182,11.347,2.912,16.753C89.417,182.053,84.791,178.669,79.756,175.979z M297.317,12
		c19.51,0,36.808,8.934,47.442,22.624h-94.894C260.498,20.935,277.801,12,297.317,12z M242.824,46.624h108.977
		c2.582,6.131,4.016,12.793,4.016,19.764v42.737h-20v-9.501h-77v9.501h-20v-42.77C238.817,59.397,240.248,52.746,242.824,46.624z
		 M187,305.433l-5.982,65.846l-69.986-157.121L187,305.433z M383.817,435.624h-172v-10.681c1.093,0.102,2.193,0.163,3.3,0.163
		h164.744c1.328,0,2.648-0.08,3.956-0.227V435.624z M397.292,405.419c-4.527,4.957-10.718,7.687-17.431,7.687H215.117
		c-6.714,0-12.904-2.73-17.432-7.688c-4.527-4.957-6.686-11.369-6.078-18.054l23.17-255.051c0.579-6.378,5.846-11.188,12.25-11.188
		h140.924c6.404,0,11.671,4.81,12.25,11.188l23.169,255.051C403.978,394.05,401.819,400.462,397.292,405.419z"/>
	<path d="M351.09,259.219c-10.485,2.377-20.139,6.845-28.534,13.046c4.982-24.38-1.949-50.732-20.824-69.607
		c-2.342-2.343-6.143-2.343-8.484,0c-18.875,18.875-25.806,45.227-20.824,69.607c-8.361-6.177-17.972-10.634-28.408-13.018
		c-0.813-0.186-1.662-0.243-2.482-0.094c-2.469,0.449-4.303,2.298-4.823,4.591c-8.836,38.984,13.945,77.894,51.365,89.795
		c5.18,1.647,13.612,1.654,18.794,0.015c17.199-5.443,31.776-16.669,41.506-32.104c10.896-17.285,14.41-37.778,9.893-57.706
		C357.534,260.512,354.317,258.486,351.09,259.219z M297.489,215.813c9.507,11.53,14.678,25.872,14.678,41.009
		c0,15.137-5.171,29.479-14.678,41.009c-9.507-11.53-14.678-25.872-14.678-41.009C282.811,241.685,287.982,227.343,297.489,215.813z
		 M290.978,341.865c-29.133-9.654-47.511-38.807-43.66-69.254c14.162,4.678,26.162,14.036,34.22,26.816
		C289.594,312.208,292.863,327.07,290.978,341.865z M338.224,315.051c-8.058,12.782-20.058,22.14-34.222,26.818
		c-1.888-14.797,1.382-29.659,9.439-42.441c8.058-12.782,20.058-22.141,34.222-26.818
		C349.551,287.407,346.281,302.269,338.224,315.051z"/>
</g>
<g>
</g>
<g>
</g>
<g>
</g>
<g>
</g>
<g>
</g>
<g>
</g>
<g>
</g>
<g>
</g>
<g>
</g>
<g>
</g>
<g>
</g>
<g>
</g>
<g>
</g>
<g>
</g>
<g>
</g>
</svg>
