<?xml version="1.0" encoding="iso-8859-1"?>
<!-- Generator: Adobe Illustrator 18.0.0, SVG Export Plug-In . SVG Version: 6.00 Build 0)  -->
<!DOCTYPE svg PUBLIC "-//W3C//DTD SVG 1.1//EN" "http://www.w3.org/Graphics/SVG/1.1/DTD/svg11.dtd">
<svg version="1.1" id="Capa_1" xmlns="http://www.w3.org/2000/svg" xmlns:xlink="http://www.w3.org/1999/xlink" x="0px" y="0px"
	 viewBox="0 0 462.917 462.917" style="enable-background:new 0 0 462.917 462.917;" xml:space="preserve">
<g>
	<path d="M157.485,119.108l63.199-13.55c3.24-0.694,5.304-3.884,4.609-7.124l-8.007-37.349c-0.333-1.556-1.271-2.916-2.608-3.78
		c-1.335-0.864-2.96-1.165-4.517-0.828l-63.199,13.55c-1.556,0.333-2.916,1.271-3.78,2.607c-0.865,1.336-1.163,2.961-0.829,4.517
		l8.008,37.349c0.604,2.816,3.092,4.743,5.861,4.743C156.638,119.243,157.061,119.2,157.485,119.108z M206.81,69.468l5.492,25.616
		l-51.465,11.034l-5.492-25.616L206.81,69.468z"/>
	<path d="M170.24,178.603l63.199-13.551c3.24-0.694,5.304-3.884,4.609-7.124l-8.008-37.349c-0.333-1.556-1.271-2.916-2.608-3.78
		c-1.336-0.863-2.96-1.163-4.517-0.828l-63.199,13.551c-3.24,0.694-5.304,3.884-4.609,7.124l8.008,37.349
		c0.333,1.556,1.271,2.916,2.608,3.78c0.979,0.633,2.111,0.962,3.259,0.962C169.402,178.736,169.824,178.692,170.24,178.603z
		 M219.565,128.962l5.492,25.615l-51.466,11.034l-5.492-25.615L219.565,128.962z"/>
	<path d="M85.75,120.714l-52.603,37.56c-1.295,0.925-2.169,2.326-2.431,3.896c-0.262,1.569,0.11,3.179,1.035,4.474l22.197,31.086
		c1.171,1.641,3.016,2.514,4.888,2.514c1.207,0,2.425-0.362,3.482-1.117l52.602-37.56c2.697-1.926,3.322-5.673,1.396-8.369
		L94.119,122.11C92.194,119.412,88.448,118.788,85.75,120.714z M103.063,155.286l-42.836,30.587l-15.224-21.32l42.836-30.587
		L103.063,155.286z"/>
	<path d="M67.108,216.16l22.196,31.087c0.924,1.295,2.326,2.17,3.896,2.432c0.328,0.055,0.659,0.082,0.987,0.082
		c1.242,0,2.462-0.386,3.487-1.117l52.603-37.56c2.697-1.926,3.322-5.673,1.396-8.369l-22.196-31.087
		c-0.924-1.295-2.326-2.17-3.896-2.432c-1.57-0.261-3.179,0.109-4.474,1.035l-52.603,37.56
		C65.808,209.717,65.183,213.464,67.108,216.16z M123.197,183.484l15.223,21.32l-42.836,30.586l-15.223-21.32L123.197,183.484z"/>
	<path d="M101.431,261.205c-0.262,1.569,0.11,3.179,1.035,4.474l22.196,31.086c1.171,1.641,3.016,2.514,4.888,2.514
		c1.207,0,2.425-0.362,3.482-1.117l52.603-37.56c1.295-0.925,2.169-2.326,2.431-3.896c0.262-1.569-0.11-3.179-1.035-4.474
		l-22.196-31.086c-1.926-2.697-5.672-3.322-8.37-1.396l-52.603,37.56C102.567,258.234,101.692,259.636,101.431,261.205z
		 M158.555,233.002l15.223,21.32l-42.836,30.587l-15.223-21.32L158.555,233.002z"/>
	<path d="M136.788,310.724c-0.262,1.569,0.11,3.179,1.035,4.474l22.196,31.086c1.171,1.641,3.016,2.514,4.888,2.514
		c1.207,0,2.425-0.362,3.482-1.117l52.603-37.56c1.295-0.925,2.169-2.326,2.431-3.896c0.262-1.569-0.11-3.179-1.035-4.474
		l-22.196-31.086c-1.925-2.697-5.672-3.322-8.37-1.396l-52.603,37.56C137.924,307.753,137.05,309.154,136.788,310.724z
		 M193.912,282.52l15.223,21.32l-42.836,30.587l-15.223-21.32L193.912,282.52z"/>
	<path d="M173.181,364.715l22.196,31.087c0.924,1.295,2.326,2.17,3.896,2.432c0.328,0.055,0.659,0.082,0.987,0.082
		c1.242,0,2.462-0.386,3.487-1.117l52.602-37.56c2.697-1.926,3.322-5.673,1.396-8.369l-22.197-31.087
		c-0.924-1.295-2.326-2.17-3.896-2.432c-1.571-0.264-3.179,0.11-4.474,1.035l-52.602,37.56
		C171.88,358.271,171.255,362.019,173.181,364.715z M229.269,332.038l15.224,21.321l-42.836,30.586l-15.223-21.32L229.269,332.038z"
		/>
	<path d="M286.922,82.813l62.913,14.823c0.455,0.107,0.916,0.16,1.376,0.16c1.106,0,2.2-0.306,3.156-0.897
		c1.354-0.837,2.319-2.178,2.684-3.727l8.76-37.18c0.76-3.226-1.238-6.456-4.464-7.216l-62.912-14.823
		c-3.229-0.766-6.456,1.239-7.216,4.464l-8.761,37.18c-0.365,1.549-0.1,3.18,0.737,4.532
		C284.032,81.483,285.373,82.449,286.922,82.813z M301.522,47.01l51.232,12.071l-6.008,25.5L295.514,72.51L301.522,47.01z"/>
	<path d="M272.968,142.037l62.913,14.823c0.455,0.107,0.916,0.16,1.376,0.16c1.106,0,2.2-0.306,3.156-0.897
		c1.354-0.837,2.319-2.178,2.684-3.727l8.76-37.18c0.76-3.226-1.238-6.456-4.464-7.216L284.48,93.178
		c-3.229-0.767-6.457,1.239-7.216,4.464l-8.761,37.18c-0.365,1.549-0.1,3.18,0.737,4.532
		C270.078,140.707,271.419,141.673,272.968,142.037z M287.568,106.233l51.232,12.071l-6.008,25.5l-51.233-12.071L287.568,106.233z"
		/>
	<path d="M459.474,56.183l-96.495-45.462c-1.439-0.679-3.09-0.759-4.589-0.218c-1.498,0.539-2.72,1.65-3.397,3.091l-1.294,2.75
		L327.006,6.73c-3.115-1.119-6.555,0.493-7.678,3.611l-1.534,4.255l-34.475-8.121c-3.23-0.765-6.456,1.239-7.216,4.464
		l-25.171,106.833l-17.979-83.856c-0.695-3.24-3.885-5.308-7.125-4.608l-104.3,22.361c-1.556,0.333-2.916,1.271-3.78,2.607
		s-1.163,2.961-0.829,4.517l18.104,84.439L97.692,90.948c-0.924-1.295-2.326-2.17-3.896-2.432c-1.572-0.264-3.179,0.11-4.474,1.035
		L2.514,151.536c-2.697,1.926-3.322,5.673-1.396,8.369l210.056,294.186c0.924,1.295,2.326,2.17,3.896,2.432
		c0.329,0.055,0.659,0.082,0.987,0.082c1.242,0,2.462-0.386,3.487-1.117l86.808-61.984c0.867-0.619,1.516-1.427,1.939-2.327
		l0.003,0.001l154.05-327.011C463.756,61.17,462.471,57.595,459.474,56.183z M274.609,228.204l36.287,8.551l-6.009,25.494
		l-24.201-5.699L274.609,228.204z M292.857,313.315l-4.133-19.277l8.218,1.937L292.857,313.315z M385.234,65.204l4.762,1.715
		l-8.878,24.645l-1.931-0.695L385.234,65.204z M350.903,210.907l11.182-31.081c0.939-2.61-0.046-5.439-2.221-6.951l2.511-10.659
		c0.577,0.176,1.161,0.279,1.739,0.279c2.458-0.001,4.765-1.523,5.646-3.969l12.943-35.942c1.122-3.118-0.495-6.556-3.612-7.679
		l-5.132-1.848l2.458-10.432l6.282,2.26c0.671,0.241,1.356,0.356,2.031,0.356c2.458,0,4.764-1.522,5.645-3.969l12.944-35.933
		c0.54-1.497,0.462-3.147-0.215-4.587c-0.678-1.44-1.899-2.553-3.397-3.092l-11.703-4.214l2.605-11.054l27.044,9.74l-84.88,235.722
		L350.903,210.907z M286.407,19.531l92.146,21.706l-75.411,320.052l-5.773-26.927c1.872-0.653,3.38-2.219,3.868-4.291l8.76-37.183
		c0.76-3.226-1.238-6.456-4.463-7.216l-19.595-4.619l-2.47-11.521l24.506,5.771c0.462,0.109,0.925,0.161,1.38,0.161
		c2.721,0,5.184-1.862,5.835-4.624l8.762-37.173c0.365-1.55,0.1-3.18-0.737-4.533s-2.178-2.318-3.727-2.684l-47.663-11.232
		l-2.47-11.52l52.575,12.383c0.463,0.109,0.926,0.161,1.381,0.161c2.721,0,5.185-1.862,5.835-4.625l8.76-37.183
		c0.365-1.549,0.1-3.18-0.737-4.533c-0.837-1.353-2.178-2.318-3.727-2.683L270.526,152.4c-1.55-0.366-3.179-0.101-4.533,0.737
		c-1.353,0.838-2.318,2.178-2.683,3.727l-2.092,8.883l-4.412-20.581L286.407,19.531z M267.608,190.96l6.007-25.504l51.234,12.068
		l-6.008,25.502L267.608,190.96z M129.912,62.144l92.566-19.846l68.456,319.287l-15.141-21.206c0.62-1.22,0.807-2.622,0.517-3.971
		l-8.008-37.352c-0.333-1.556-1.271-2.916-2.607-3.78c-1.337-0.865-2.965-1.165-4.517-0.828l-15.767,3.381l-6.739-9.438
		l20.276-4.347c1.556-0.333,2.916-1.271,3.78-2.607s1.162-2.961,0.828-4.517l-8.008-37.352c-0.333-1.556-1.271-2.916-2.607-3.78
		c-1.337-0.865-2.964-1.165-4.517-0.828l-41.544,8.907l-6.745-9.447l46.056-9.875c1.556-0.333,2.916-1.271,3.78-2.607
		s1.163-2.961,0.829-4.517l-8.008-37.351c-0.695-3.24-3.884-5.309-7.125-4.608l-63.194,13.549c-1.311,0.281-2.462,1.009-3.316,2.025
		l-16.594-23.241L129.912,62.144z M260.211,318.557l-7.201-10.085l4.818-1.033L260.211,318.557z M214.479,254.509l30.594-6.559
		l5.493,25.618l-19.493,4.18L214.479,254.509z M183.286,210.824l-2.431-11.338l51.46-11.033l5.493,25.618l-45.273,9.707
		L183.286,210.824z M217.453,442.235L14.37,157.815l77.042-55.012l203.083,284.42L217.453,442.235z M351.445,271.423l36.998-102.749
		c1.168-0.58,2.161-1.532,2.76-2.803l16.279-34.55c1.391-2.952,0.162-6.461-2.74-7.915l3.626-10.069l0.779,0.367
		c0.826,0.389,1.696,0.573,2.553,0.572c2.251,0,4.409-1.272,5.432-3.444l16.276-34.561c1.412-2.998,0.127-6.572-2.87-7.984
		l-5.085-2.396l3.839-10.662l19.639,9.253L351.445,271.423z"/>
</g>
<g>
</g>
<g>
</g>
<g>
</g>
<g>
</g>
<g>
</g>
<g>
</g>
<g>
</g>
<g>
</g>
<g>
</g>
<g>
</g>
<g>
</g>
<g>
</g>
<g>
</g>
<g>
</g>
<g>
</g>
</svg>
