<?xml version="1.0" encoding="iso-8859-1"?>
<!-- Generator: Adobe Illustrator 18.0.0, SVG Export Plug-In . SVG Version: 6.00 Build 0)  -->
<!DOCTYPE svg PUBLIC "-//W3C//DTD SVG 1.1//EN" "http://www.w3.org/Graphics/SVG/1.1/DTD/svg11.dtd">
<svg version="1.1" id="Capa_1" xmlns="http://www.w3.org/2000/svg" xmlns:xlink="http://www.w3.org/1999/xlink" x="0px" y="0px"
	 viewBox="0 0 447.493 447.493" style="enable-background:new 0 0 447.493 447.493;" xml:space="preserve">
<g>
	<path d="M441.493,123.138H420.08v-9.39c0-17.063-13.882-30.945-30.945-30.945h-72.667V45.536c0-3.313-2.687-6-6-6h-4.72v-8.752h-12
		v8.752h-5.321c-3.313,0-6,2.687-6,6v37.267H69.362c-11.386,0-22.346,4.798-30.069,13.165s-11.631,19.674-10.723,31.024
		l9.719,121.36c0.25,3.118,2.853,5.521,5.981,5.521h17.479v25.911c0,3.313,2.687,6,6,6h7v20c0,3.313,2.687,6,6,6s6-2.687,6-6v-20h8
		c3.313,0,6-2.687,6-6v-25.911h22.487c3.313,0,6-2.686,6-6v-20.812c0-16.356,13.307-29.663,29.663-29.663h79.274
		c16.356,0,29.663,13.307,29.663,29.663v86.347H16.394c-4.695,0-9.172,2.018-12.282,5.535c-3.11,3.518-4.563,8.207-3.989,12.867
		l7.716,62.539c1.573,12.747,12.445,22.36,25.289,22.36h352.463c12.844,0,23.716-9.613,25.289-22.36l9.155-74.206
		c0.03-0.244,0.045-0.489,0.045-0.735v-87.121h21.413c3.313,0,6-2.687,6-6v-97.149C447.493,125.824,444.806,123.138,441.493,123.138
		z M294.427,51.536h10.042v31.267h-10.042V51.536z M88.749,273.784h-15v-19.911h15V273.784z M13.102,326.892
		c0.49-0.554,1.569-1.484,3.292-1.484h257.44c3.313,0,6-2.686,6-6v-92.347c0-22.973-18.69-41.663-41.663-41.663h-79.274
		c-22.973,0-41.663,18.69-41.663,41.663v14.812H49.809l-9.276-115.839c-0.652-8.14,2.04-15.927,7.578-21.927
		c5.539-6,13.086-9.305,21.252-9.305h319.773c10.446,0,18.945,8.499,18.945,18.945v205.291l-1.696,13.745H12.334l-0.302-2.444
		C11.822,328.63,12.612,327.446,13.102,326.892z M398.969,392.88c-0.832,6.744-6.583,11.829-13.378,11.829H33.128
		c-6.795,0-12.546-5.085-13.379-11.83l-5.934-48.095h391.089L398.969,392.88z M435.493,220.287H420.08v-85.149h15.413V220.287z"/>
	<path d="M82.731,181.273c-13.211,0-23.96,10.748-23.96,23.959s10.749,23.96,23.96,23.96s23.959-10.749,23.959-23.96
		S95.943,181.273,82.731,181.273z M82.731,217.193c-6.595,0-11.96-5.365-11.96-11.96c0-6.594,5.365-11.959,11.96-11.959
		c6.594,0,11.959,5.365,11.959,11.959C94.691,211.827,89.325,217.193,82.731,217.193z"/>
	<path d="M232.564,107.426c-16.813,0-30.49,13.678-30.49,30.49s13.678,30.491,30.49,30.491s30.491-13.678,30.491-30.491
		S249.377,107.426,232.564,107.426z M232.564,156.407c-10.195,0-18.49-8.295-18.49-18.491c0-10.195,8.295-18.49,18.49-18.49
		c10.196,0,18.491,8.295,18.491,18.49C251.055,148.112,242.76,156.407,232.564,156.407z"/>
	<path d="M304.224,168.407c16.813,0,30.491-13.678,30.491-30.491s-13.678-30.49-30.491-30.49s-30.491,13.678-30.491,30.49
		S287.411,168.407,304.224,168.407z M304.224,119.426c10.196,0,18.491,8.295,18.491,18.49c0,10.196-8.295,18.491-18.491,18.491
		s-18.491-8.295-18.491-18.491C285.733,127.721,294.028,119.426,304.224,119.426z"/>
</g>
<g>
</g>
<g>
</g>
<g>
</g>
<g>
</g>
<g>
</g>
<g>
</g>
<g>
</g>
<g>
</g>
<g>
</g>
<g>
</g>
<g>
</g>
<g>
</g>
<g>
</g>
<g>
</g>
<g>
</g>
</svg>
