<?xml version="1.0" encoding="iso-8859-1"?>
<!-- Generator: Adobe Illustrator 18.0.0, SVG Export Plug-In . SVG Version: 6.00 Build 0)  -->
<!DOCTYPE svg PUBLIC "-//W3C//DTD SVG 1.1//EN" "http://www.w3.org/Graphics/SVG/1.1/DTD/svg11.dtd">
<svg version="1.1" id="Capa_1" xmlns="http://www.w3.org/2000/svg" xmlns:xlink="http://www.w3.org/1999/xlink" x="0px" y="0px"
	 viewBox="0 0 415.481 415.481" style="enable-background:new 0 0 415.481 415.481;" xml:space="preserve">
<g>
	<path d="M305.037,0H110.445C87.177,0,68.247,18.93,68.247,42.198v331.085c0,23.269,18.93,42.198,42.198,42.198h194.592
		c23.268,0,42.198-18.93,42.198-42.198V42.198C347.235,18.93,328.305,0,305.037,0z M335.235,373.283
		c0,16.651-13.547,30.198-30.198,30.198H110.445c-16.651,0-30.198-13.547-30.198-30.198V42.198C80.247,25.547,93.793,12,110.445,12
		h194.592c16.651,0,30.198,13.547,30.198,30.198V373.283z"/>
	<path d="M305.037,27H110.445c-8.38,0-15.198,6.818-15.198,15.198v331.085c0,8.38,6.818,15.198,15.198,15.198h194.592
		c8.38,0,15.198-6.818,15.198-15.198V42.198C320.235,33.818,313.417,27,305.037,27z M110.445,39h194.592
		c1.764,0,3.198,1.435,3.198,3.198v40.59h-5.251v-10c0-3.313-2.687-6-6-6s-6,2.687-6,6v10h-6.2v-10c0-3.313-2.687-6-6-6
		s-6,2.687-6,6v10H180.25v-10c0-3.313-2.687-6-6-6s-6,2.687-6,6v10h-6.2v-10c0-3.313-2.687-6-6-6s-6,2.687-6,6v10h-6.2v-10
		c0-3.313-2.687-6-6-6s-6,2.687-6,6v10h-6.2v-10c0-3.313-2.687-6-6-6s-6,2.687-6,6v10h-6.403v-40.59
		C107.247,40.435,108.681,39,110.445,39z M296.983,304.692c-3.313,0-6,2.687-6,6v10h-6.2v-10c0-3.313-2.687-6-6-6s-6,2.687-6,6v10
		H180.25v-10c0-3.313-2.687-6-6-6s-6,2.687-6,6v10h-6.2v-10c0-3.313-2.687-6-6-6s-6,2.687-6,6v10h-6.2v-10c0-3.313-2.687-6-6-6
		s-6,2.687-6,6v10h-6.2v-10c0-3.313-2.687-6-6-6s-6,2.687-6,6v10h-6.403v-47.476h6.403v10c0,3.313,2.687,6,6,6s6-2.687,6-6v-10h6.2
		v10c0,3.313,2.687,6,6,6s6-2.687,6-6v-10h6.2v10c0,3.313,2.687,6,6,6s6-2.687,6-6v-10h6.2v10c0,3.313,2.687,6,6,6s6-2.687,6-6v-10
		h6.2v10c0,3.313,2.687,6,6,6s6-2.687,6-6v-10h92.533v10c0,3.313,2.687,6,6,6s6-2.687,6-6v-10h5.251v47.476h-5.251v-10
		C302.983,307.379,300.297,304.692,296.983,304.692z M302.983,261.217v-10c0-3.313-2.687-6-6-6s-6,2.687-6,6v10H198.45v-10
		c0-3.313-2.687-6-6-6s-6,2.687-6,6v10h-6.2v-10c0-3.313-2.687-6-6-6s-6,2.687-6,6v10h-6.2v-10c0-3.313-2.687-6-6-6s-6,2.687-6,6v10
		h-6.2v-10c0-3.313-2.687-6-6-6s-6,2.687-6,6v10h-6.2v-10c0-3.313-2.687-6-6-6s-6,2.687-6,6v10h-6.403V213.74h6.403v10
		c0,3.313,2.687,6,6,6s6-2.687,6-6v-10h6.2v10c0,3.313,2.687,6,6,6s6-2.687,6-6v-10h92.533v10c0,3.313,2.687,6,6,6s6-2.687,6-6v-10
		h6.2v10c0,3.313,2.687,6,6,6s6-2.687,6-6v-10h6.2v10c0,3.313,2.687,6,6,6s6-2.687,6-6v-10h6.2v10c0,3.313,2.687,6,6,6s6-2.687,6-6
		v-10h5.251v47.477H302.983z M302.983,201.74v-10c0-3.313-2.687-6-6-6s-6,2.687-6,6v10h-6.2v-10c0-3.313-2.687-6-6-6s-6,2.687-6,6
		v10h-6.2v-10c0-3.313-2.687-6-6-6s-6,2.687-6,6v10h-6.2v-10c0-3.313-2.687-6-6-6s-6,2.687-6,6v10H143.85v-10c0-3.313-2.687-6-6-6
		s-6,2.687-6,6v10h-6.2v-10c0-3.313-2.687-6-6-6s-6,2.687-6,6v10h-6.403v-47.476h6.403v10c0,3.313,2.687,6,6,6s6-2.687,6-6v-10h6.2
		v10c0,3.313,2.687,6,6,6s6-2.687,6-6v-10h6.2v10c0,3.313,2.687,6,6,6s6-2.687,6-6v-10h92.533v10c0,3.313,2.687,6,6,6s6-2.687,6-6
		v-10h6.2v10c0,3.313,2.687,6,6,6s6-2.687,6-6v-10h6.2v10c0,3.313,2.687,6,6,6s6-2.687,6-6v-10h5.251v47.476H302.983z
		 M302.983,142.265v-10c0-3.313-2.687-6-6-6s-6,2.687-6,6v10h-6.2v-10c0-3.313-2.687-6-6-6s-6,2.687-6,6v10h-6.2v-10
		c0-3.313-2.687-6-6-6s-6,2.687-6,6v10H162.05v-10c0-3.313-2.687-6-6-6s-6,2.687-6,6v10h-6.2v-10c0-3.313-2.687-6-6-6s-6,2.687-6,6
		v10h-6.2v-10c0-3.313-2.687-6-6-6s-6,2.687-6,6v10h-6.403V94.788h6.403v10c0,3.313,2.687,6,6,6s6-2.687,6-6v-10h6.2v10
		c0,3.313,2.687,6,6,6s6-2.687,6-6v-10h6.2v10c0,3.313,2.687,6,6,6s6-2.687,6-6v-10h6.2v10c0,3.313,2.687,6,6,6s6-2.687,6-6v-10
		h92.533v10c0,3.313,2.687,6,6,6s6-2.687,6-6v-10h6.2v10c0,3.313,2.687,6,6,6s6-2.687,6-6v-10h5.251v47.477H302.983z
		 M305.037,376.481H110.445c-1.764,0-3.198-1.435-3.198-3.198v-40.591h6.403v10c0,3.313,2.687,6,6,6s6-2.687,6-6v-10h6.2v10
		c0,3.313,2.687,6,6,6s6-2.687,6-6v-10h6.2v10c0,3.313,2.687,6,6,6s6-2.687,6-6v-10h6.2v10c0,3.313,2.687,6,6,6s6-2.687,6-6v-10
		h92.533v10c0,3.313,2.687,6,6,6s6-2.687,6-6v-10h6.2v10c0,3.313,2.687,6,6,6s6-2.687,6-6v-10h5.251v40.591
		C308.235,375.047,306.8,376.481,305.037,376.481z"/>
</g>
<g>
</g>
<g>
</g>
<g>
</g>
<g>
</g>
<g>
</g>
<g>
</g>
<g>
</g>
<g>
</g>
<g>
</g>
<g>
</g>
<g>
</g>
<g>
</g>
<g>
</g>
<g>
</g>
<g>
</g>
</svg>
