<?xml version="1.0" encoding="iso-8859-1"?>
<!-- Generator: Adobe Illustrator 18.0.0, SVG Export Plug-In . SVG Version: 6.00 Build 0)  -->
<!DOCTYPE svg PUBLIC "-//W3C//DTD SVG 1.1//EN" "http://www.w3.org/Graphics/SVG/1.1/DTD/svg11.dtd">
<svg version="1.1" id="Capa_1" xmlns="http://www.w3.org/2000/svg" xmlns:xlink="http://www.w3.org/1999/xlink" x="0px" y="0px"
	 viewBox="0 0 439.456 439.456" style="enable-background:new 0 0 439.456 439.456;" xml:space="preserve">
<g>
	<path d="M323.478,370.458c0,0-72.085,0-72.127,0c-11.117,0-19.5,14.402-19.5,33.5s8.383,33.5,19.5,33.5c0.043,0,72.127,0,72.127,0
		c11.117,0,19.5-14.402,19.5-33.5S334.594,370.458,323.478,370.458z M247.191,420.759c-2.123-4.323-3.34-10.447-3.34-16.801
		s1.217-12.478,3.34-16.801c1.68-3.424,3.443-4.699,4.16-4.699c0.717,0,2.479,1.275,4.16,4.698c2.123,4.324,3.34,10.448,3.34,16.802
		s-1.217,12.478-3.34,16.802c-1.681,3.423-3.443,4.698-4.16,4.698C250.634,425.458,248.871,424.183,247.191,420.759z
		 M327.637,420.759c-1.68,3.424-3.443,4.699-4.16,4.699h-56.943c2.72-5.737,4.315-13.172,4.315-21.5s-1.595-15.763-4.315-21.5
		h56.943c0.716,0,2.479,1.275,4.16,4.699c2.123,4.323,3.34,10.447,3.34,16.801S329.76,416.436,327.637,420.759z"/>
	<path d="M227.63,427.456h-13.044c-2.448-12.856-12.6-23.008-25.456-25.455V231.578c21.556-2.59,41.374-19.111,56.323-47.194
		c15.688-29.475,24.329-68.526,24.329-109.964c0-24.605-2.99-48.151-8.886-69.984C260.188,1.818,257.814,0,255.102,0H111.157
		c-2.711,0-5.085,1.818-5.792,4.436c-5.896,21.833-8.886,45.379-8.886,69.984c0,41.439,8.639,80.492,24.325,109.964
		c14.947,28.084,34.767,44.605,56.327,47.194v170.422c-12.856,2.447-23.008,12.599-25.455,25.455H138.63c-3.313,0-6,2.687-6,6
		s2.687,6,6,6h89c3.313,0,6-2.687,6-6S230.943,427.456,227.63,427.456z M108.478,74.42c0-21.887,2.461-42.859,7.321-62.42h134.66
		c4.86,19.561,7.321,40.533,7.321,62.42c0,37.819-7.477,73.364-21.081,100.694H129.556
		C115.954,147.786,108.478,112.24,108.478,74.42z M136.244,187.114h93.767c-13.373,21.25-29.792,32.833-46.882,32.833
		C166.037,219.947,149.616,208.365,136.244,187.114z M183.13,413.429c8.954,0,16.551,5.907,19.107,14.027h-38.214
		C166.579,419.336,174.176,413.429,183.13,413.429z"/>
</g>
<g>
</g>
<g>
</g>
<g>
</g>
<g>
</g>
<g>
</g>
<g>
</g>
<g>
</g>
<g>
</g>
<g>
</g>
<g>
</g>
<g>
</g>
<g>
</g>
<g>
</g>
<g>
</g>
<g>
</g>
</svg>
