<?xml version="1.0" encoding="iso-8859-1"?>
<!-- Generator: Adobe Illustrator 18.0.0, SVG Export Plug-In . SVG Version: 6.00 Build 0)  -->
<!DOCTYPE svg PUBLIC "-//W3C//DTD SVG 1.1//EN" "http://www.w3.org/Graphics/SVG/1.1/DTD/svg11.dtd">
<svg version="1.1" id="Capa_1" xmlns="http://www.w3.org/2000/svg" xmlns:xlink="http://www.w3.org/1999/xlink" x="0px" y="0px"
	 viewBox="0 0 473.978 473.978" style="enable-background:new 0 0 473.978 473.978;" xml:space="preserve">
<g>
	<path d="M292.639,101.702c-13.578-4.189-22.7-16.523-22.7-30.691c0-10.787-8.776-19.563-19.563-19.563h-7.388v-6.449h5.25
		c3.313,0,6-2.687,6-6s-2.687-6-6-6h-5.25V6c0-3.313-2.687-6-6-6s-6,2.687-6,6v26.999h-5.249c-3.313,0-6,2.687-6,6s2.687,6,6,6
		h5.249v6.449h-7.388c-10.787,0-19.563,8.775-19.563,19.563c0,14.168-9.123,26.502-22.7,30.691
		c-37.263,11.497-55.879,31.587-52.42,56.569c0.199,1.438,0.913,2.754,2.008,3.706l0.103,0.09
		c18.46,16.073,31.843,37.021,38.703,60.582c6.838,23.488,6.862,48.403,0.07,72.051c-7.042,24.511-10.989,53.611-11.732,86.491
		c-0.106,4.706,1.646,9.15,4.935,12.514c3.281,3.356,7.671,5.204,12.362,5.204h55.622v69.068c0,3.313,2.687,6,6,6s6-2.687,6-6
		v-69.068h55.623c4.691,0,9.082-1.848,12.362-5.204c3.289-3.363,5.041-7.808,4.935-12.514c-0.744-32.88-4.691-61.98-11.732-86.491
		c-6.792-23.647-6.768-48.563,0.07-72.051c6.859-23.561,20.242-44.509,38.698-60.578l0.108-0.094
		c1.096-0.952,1.809-2.269,2.008-3.706C348.519,133.289,329.903,113.199,292.639,101.702z M333.393,154.499
		c-19.333,17.384-33.375,39.742-40.669,64.796c-7.473,25.668-7.501,52.889-0.082,78.718c6.757,23.522,10.548,51.599,11.269,83.45
		c0.033,1.45-0.506,2.818-1.518,3.854c-1.004,1.027-2.347,1.593-3.782,1.593H175.366c-1.435,0-2.778-0.565-3.782-1.593
		c-1.012-1.035-1.551-2.403-1.518-3.854c0.72-31.852,4.512-59.928,11.269-83.45c7.419-25.83,7.39-53.05-0.083-78.718
		c-7.293-25.053-21.333-47.409-40.669-64.795c-1.517-22.327,23.042-34.774,44.292-41.331c18.639-5.751,31.162-22.693,31.162-42.158
		c0-4.17,3.393-7.563,7.563-7.563h26.776c4.17,0,7.563,3.393,7.563,7.563c0,19.465,12.523,36.407,31.162,42.158
		C310.351,119.726,334.91,132.172,333.393,154.499z"/>
	<path d="M269.631,138.165l-11.811-2.121c-0.78,4.343-1.437,8.71-1.95,12.98l11.914,1.435
		C268.27,146.417,268.892,142.281,269.631,138.165z"/>
	<path d="M255.066,188.531c0.399,4.468,0.984,8.898,1.737,13.167l11.818-2.085c-0.694-3.935-1.234-8.023-1.604-12.153
		L255.066,188.531z"/>
	<path d="M266.401,175.169c-0.009-0.708-0.014-1.413-0.014-2.115c0.001-3.361,0.101-6.808,0.296-10.245l-11.98-0.682
		c-0.208,3.663-0.314,7.337-0.315,10.925c0,0.751,0.005,1.505,0.014,2.261L266.401,175.169z"/>
	<path d="M275.117,223.053c-1.447-3.713-2.732-7.594-3.819-11.535l-11.568,3.19c1.196,4.335,2.611,8.609,4.208,12.703
		L275.117,223.053z"/>
	<path d="M275.357,113.932l-11.514-3.385c-1.223,4.159-2.351,8.42-3.354,12.666l11.678,2.761
		C273.121,121.936,274.194,117.885,275.357,113.932z"/>
	<path d="M269.487,239.638c2.076,3.973,4.396,7.858,6.895,11.55l9.938-6.727c-2.246-3.317-4.33-6.81-6.195-10.38L269.487,239.638z"
		/>
	<path d="M263.37,325.075l-10.596,5.635c1.751,3.291,3.459,6.721,5.08,10.195l10.875-5.07
		C267.021,332.17,265.218,328.551,263.37,325.075z"/>
	<path d="M273.531,346.833l-11.109,4.535c1.421,3.483,2.791,7.077,4.072,10.681l11.307-4.018
		C276.459,354.255,275.022,350.487,273.531,346.833z"/>
	<path d="M270.086,372.917c1.121,3.659,2.166,7.365,3.106,11.015l11.621-2.994c-0.985-3.823-2.08-7.704-3.253-11.534
		L270.086,372.917z"/>
	<path d="M250.82,304.477l-9.842,6.865c2.114,3.031,4.193,6.226,6.178,9.492l10.256-6.232
		C255.296,311.121,253.079,307.715,250.82,304.477z"/>
	<path d="M217.483,269.259l-7.232,9.576c2.926,2.21,5.819,4.605,8.599,7.12l8.051-8.898
		C223.859,274.305,220.69,271.682,217.483,269.259z"/>
	<path d="M191.345,267.183c3.297,1.614,6.568,3.42,9.723,5.367l6.302-10.213c-3.486-2.15-7.102-4.146-10.747-5.932L191.345,267.183z
		"/>
	<path d="M235.591,285.604l-8.752,8.211c2.511,2.675,4.99,5.532,7.372,8.49l9.348-7.523
		C240.988,291.587,238.308,288.499,235.591,285.604z"/>
</g>
<g>
</g>
<g>
</g>
<g>
</g>
<g>
</g>
<g>
</g>
<g>
</g>
<g>
</g>
<g>
</g>
<g>
</g>
<g>
</g>
<g>
</g>
<g>
</g>
<g>
</g>
<g>
</g>
<g>
</g>
</svg>
