<?xml version="1.0" encoding="iso-8859-1"?>
<!-- Generator: Adobe Illustrator 18.0.0, SVG Export Plug-In . SVG Version: 6.00 Build 0)  -->
<!DOCTYPE svg PUBLIC "-//W3C//DTD SVG 1.1//EN" "http://www.w3.org/Graphics/SVG/1.1/DTD/svg11.dtd">
<svg version="1.1" id="Capa_1" xmlns="http://www.w3.org/2000/svg" xmlns:xlink="http://www.w3.org/1999/xlink" x="0px" y="0px"
	 viewBox="0 0 459.9 459.9" style="enable-background:new 0 0 459.9 459.9;" xml:space="preserve">
<g>
	<path d="M315.14,190.511c-24.686,0-44.77,20.083-44.77,44.77v168.542c0,23.711-19.29,43.001-43.001,43.001
		s-43.001-19.29-43.001-43.001v-4.484c14.297-2.699,25.165-14.904,25.721-29.994l5.485-148.966h17.764c3.313,0,6-2.687,6-6V111.031
		c3.608-5.653,6.384-11.728,8.281-18.077h2.369c3.313,0,6-2.687,6-6c0-3.272-2.621-5.928-5.878-5.994
		c0.347-2.884,0.532-5.8,0.532-8.739C250.644,32.398,218.245,0,178.423,0c-39.829,0-72.232,32.398-72.232,72.221
		c0,2.937,0.184,5.851,0.531,8.732h-0.732c-3.313,0-6,2.687-6,6s2.687,6,6,6h3.225c1.897,6.35,4.674,12.426,8.283,18.08v103.344
		c0,3.313,2.687,6,6,6h17.346l5.846,149.042c0.59,15.034,11.436,27.199,25.681,29.91v4.492c0,30.328,24.673,55.001,55.001,55.001
		s55.001-24.673,55.001-55.001V235.281c0-18.069,14.7-32.77,32.77-32.77s32.77,14.7,32.77,32.77V453.9c0,3.313,2.687,6,6,6
		s6-2.687,6-6V235.281C359.91,210.595,339.826,190.511,315.14,190.511z M118.191,72.221c0-33.206,27.02-60.221,60.232-60.221
		c33.206,0,60.221,27.015,60.221,60.221c0,2.943-0.215,5.859-0.632,8.732h-119.19C118.406,78.081,118.191,75.164,118.191,72.221z
		 M234.977,92.954c-1.324,3.615-2.998,7.104-5.012,10.428H126.87c-2.013-3.323-3.688-6.813-5.012-10.428H234.977z M129.497,115.381
		h97.842v92.997h-97.842V115.381z M158.679,368.949l-5.827-148.571h50.715l-5.469,148.524c-0.392,10.653-9.05,18.998-19.71,18.998
		C167.753,387.9,159.096,379.576,158.679,368.949z"/>
	<path d="M172.99,134.954h-29c-3.313,0-6,2.687-6,6s2.687,6,6,6h8v36c0,3.313,2.687,6,6,6s6-2.687,6-6v-36h9c3.313,0,6-2.687,6-6
		S176.303,134.954,172.99,134.954z"/>
	<path d="M214.509,135.104c-3.191-0.896-6.504,0.957-7.404,4.146l-6.072,21.527l-6.071-21.527c-0.899-3.189-4.212-5.042-7.404-4.146
		c-3.189,0.9-5.045,4.214-4.146,7.404l11.846,42.001c0.729,2.585,3.088,4.371,5.775,4.371c2.686,0,5.045-1.786,5.775-4.371
		l11.847-42.001C219.554,139.319,217.698,136.004,214.509,135.104z"/>
</g>
<g>
</g>
<g>
</g>
<g>
</g>
<g>
</g>
<g>
</g>
<g>
</g>
<g>
</g>
<g>
</g>
<g>
</g>
<g>
</g>
<g>
</g>
<g>
</g>
<g>
</g>
<g>
</g>
<g>
</g>
</svg>
